<mxfile host="app.diagrams.net" modified="2024-05-28T01:32:41.920Z" agent="Mozilla/5.0 (Windows NT 10.0; Win64; x64) AppleWebKit/537.36 (KHTML, like Gecko) Chrome/125.0.0.0 Safari/537.36" version="24.2.8" etag="1AtYbi_SYUxN93O1N7Fc" type="github">
  <diagram name="페이지-1" id="4bYyTBpK_4bc26GdBVcM">
    <mxGraphModel>
      <root>
        <mxCell id="0" />
        <mxCell id="1" parent="0" />
      </root>
    </mxGraphModel>
  </diagram>
</mxfile>
